<svg id="visual" viewBox="0 0 960 540" width="960" height="540" xmlns="http://www.w3.org/2000/svg" xmlns:xlink="http://www.w3.org/1999/xlink" version="1.1"><path d="M0 376L32 377.8C64 379.7 128 383.3 192 384C256 384.7 320 382.3 384 382.2C448 382 512 384 576 386.5C640 389 704 392 768 398.2C832 404.3 896 413.7 928 418.3L960 423L960 541L928 541C896 541 832 541 768 541C704 541 640 541 576 541C512 541 448 541 384 541C320 541 256 541 192 541C128 541 64 541 32 541L0 541Z" fill="#fa7268"></path><path d="M0 489L32 481.7C64 474.3 128 459.7 192 457.8C256 456 320 467 384 466.8C448 466.7 512 455.3 576 450.3C640 445.3 704 446.7 768 447.2C832 447.7 896 447.3 928 447.2L960 447L960 541L928 541C896 541 832 541 768 541C704 541 640 541 576 541C512 541 448 541 384 541C320 541 256 541 192 541C128 541 64 541 32 541L0 541Z" fill="#c62368"></path></svg>